<?xml version="1.0" encoding="UTF-8"?>
<svg xmlns="http://www.w3.org/2000/svg" viewBox="0 0 64 64" width="512" height="512"><g id="outline"><path d="M55.7,32.712l2.005-2.005a1,1,0,0,0,0-1.414L52,23.586V20a1,1,0,0,0-.293-.707l-7-7a1,1,0,0,0-1.414,0l-3,3a1,1,0,0,0,0,1.414l6.878,6.878-3.806-.543-2.81-1.874A1.006,1.006,0,0,0,40,21H31a1,1,0,0,0-.625.219L25.649,25h-5.18l-4.7-5.641A1,1,0,0,0,15,19H3a1,1,0,0,0-.555,1.832L15,29.2V32.47A9.929,9.929,0,0,0,12,32c-.188,0-.371.018-.557.029l-1.569-1.57-.926-2.775A1,1,0,0,0,8,27H3a1,1,0,0,0-1,1v5a1,1,0,0,0,.293.707l1.966,1.966A9.894,9.894,0,0,0,2,42a10,10,0,0,0,19.544,3H22v3a1,1,0,0,0,1,1H44.887A9.99,9.99,0,1,0,55.7,32.712Zm-1.7-4.3L55.586,30l-.783.783-2.115-1.057ZM42.414,16,44,14.414l6,6v3.172Zm1.466,9.136,4,.571-4.57,4.57ZM42.7,33.7,51,25.414,52.586,27l-14,14H31V37.858A4,4,0,0,0,34,34h8A.988.988,0,0,0,42.7,33.7ZM22,34l7,4.535V41H25.805a3.24,3.24,0,0,0-2.639-1.986l-1.722-.289A9.991,9.991,0,0,0,17.985,34Zm-5-2V30.535L19.2,32Zm11,2a2,2,0,1,1,2,2A2,2,0,0,1,28,34Zm13.1-2h-7.66A4,4,0,0,0,31,30.142v-1.4L41.837,25.4ZM6.3,21h8.228l4.7,5.641A1,1,0,0,0,20,27h6a1,1,0,0,0,.625-.219L31.351,23H39.7l1,.664-10.987,3.38A1,1,0,0,0,29,28v2.142A4,4,0,0,0,26,34c0,.048.013.093.014.141Zm12.81,17.337-1.633-.271-3.91-3.91A8.045,8.045,0,0,1,19.113,38.337ZM9,32.414l6.741,6.741L13.8,42.387,6.414,35ZM14.643,45a3.989,3.989,0,0,1-6.079-5.022l4.729,4.729A1,1,0,0,0,14,45ZM4,32.586V29H7.279l.576,1.729L5,33.586ZM12,50a8.009,8.009,0,0,1-8-8,7.908,7.908,0,0,1,1.681-4.9l1.43,1.429A6,6,0,1,0,17.187,45H19.42A8.071,8.071,0,0,1,12,50Zm11-7H15.766l1.742-2.9,5.37.894C23.43,41.061,24,41.455,24,42A.928.928,0,0,1,23,43Zm21.434,4H24V44.828A2.861,2.861,0,0,0,25.828,43H39a1,1,0,0,0,.707-.293L51.2,31.217l2.115,1.057-.019.019C53.235,32.351,44.434,47,44.434,47ZM56,42a4,4,0,0,1-7.447,2.022l3.6-6.006A4,4,0,0,1,56,42Zm-4,8a7.967,7.967,0,0,1-5.631-2.338l1.063-1.771a6,6,0,1,0,5.849-9.75l1.072-1.786A8,8,0,0,1,52,50Z"/><rect x="35" y="36" width="5" height="2"/><rect x="38" y="28" width="2" height="2"/></g></svg>
